<svg xmlns="http://www.w3.org/2000/svg" viewBox="0 0 24 24" fill="currentColor">
  <path d="M4.983 3.5a2.5 2.5 0 1 1-.002 5.002 2.5 2.5 0 0 1 .002-5.002Zm-.75 6.75h1.5A.75.75 0 0 1 6.5 11v9.25a.75.75 0 0 1-.75.75h-1.5a.75.75 0 0 1-.75-.75V11a.75.75 0 0 1 .75-.75Zm5 0h1.44a.75.75 0 0 1 .75.75v.522c.53-.778 1.42-1.522 2.963-1.522 2.308 0 3.807 1.502 3.807 4.62v5.88a.75.75 0 0 1-.75.75h-1.5a.75.75 0 0 1-.75-.75v-5.19c0-1.557-.559-2.457-1.674-2.457-1.2 0-1.91.809-1.91 2.457v5.19a.75.75 0 0 1-.75.75h-1.5a.75.75 0 0 1-.75-.75V11a.75.75 0 0 1 .75-.75Z"/>
</svg>

